<?xml version="1.0" encoding="utf-8" ?><svg xmlns="http://www.w3.org/2000/svg" width="940" height="865" viewBox="195 205 940 865"><path fill="#3E6B87" transform="scale(1.61086 1.61068)" d="M473.985 140.089C474.593 140.001 474.797 140 475.421 139.995C535.057 139.517 587.95 161.759 630.032 203.781C669.147 243.454 690.807 297.107 690.202 352.823C690.065 413.226 663.405 465.93 621.27 507.983C624.444 515.969 626.135 524.264 625.817 532.876C625.417 546.274 619.622 558.941 609.748 568.003C591.134 585.279 560.491 589.071 538.53 575.858C531.21 571.453 526.627 566.584 520.825 560.361C517.878 561.08 514.098 561.677 511.057 562.245C504.229 563.161 496.086 564.022 489.209 564.379C433.089 567.349 378.12 547.696 336.599 509.814C249.805 431.421 244.236 293.388 323.871 208.316C365.193 164.171 413.945 143.105 473.985 140.089ZM484.643 466.251C547.882 462.523 596.054 408.107 592.099 344.866C588.145 281.626 533.569 233.638 470.359 237.821C407.469 241.982 359.789 296.234 363.723 359.154C367.658 422.074 421.725 469.961 484.643 466.251Z"/><path fill="#B9860C" transform="scale(1.61086 1.61068)" d="M193.048 216.748C203.113 216.314 215.507 216.641 225.747 216.637C226.547 303.575 226.783 390.518 226.456 477.459C220.262 477.632 214.067 477.744 207.872 477.793C203.021 477.839 182.888 478.345 179.9 475.462C176.827 472.498 177.745 455.038 177.799 449.99L177.776 268.406C159.914 276.128 150.567 279.185 131.889 284.025C131.998 270.672 132.006 257.319 131.914 243.966C156.31 237.699 171.822 229.229 193.048 216.748Z"/><path fill="#B9860C" transform="scale(1.61086 1.61068)" d="M603.886 584.598C620.123 581.162 636.052 591.607 639.378 607.871C642.705 624.135 632.156 639.998 615.874 643.216C599.745 646.404 584.068 635.973 580.773 619.862C577.478 603.751 587.801 588.001 603.886 584.598Z"/></svg>
