<?xml version="1.0" encoding="utf-8" ?><svg xmlns="http://www.w3.org/2000/svg" xmlns:xlink="http://www.w3.org/1999/xlink" width="2165" height="1237" viewBox="0 0 2165 1237"><path fill="#3E6B87" transform="scale(1.61086 1.61068)" d="M473.985 140.089C474.593 140.001 474.797 140 475.421 139.995C535.057 139.517 587.95 161.759 630.032 203.781C669.147 243.454 690.807 297.107 690.202 352.823C690.065 413.226 663.405 465.93 621.27 507.983C624.444 515.969 626.135 524.264 625.817 532.876C625.417 546.274 619.622 558.941 609.748 568.003C591.134 585.279 560.491 589.071 538.53 575.858C531.21 571.453 526.627 566.584 520.825 560.361C517.878 561.08 514.098 561.677 511.057 562.245C504.229 563.161 496.086 564.022 489.209 564.379C433.089 567.349 378.12 547.696 336.599 509.814C249.805 431.421 244.236 293.388 323.871 208.316C365.193 164.171 413.945 143.105 473.985 140.089ZM484.643 466.251C547.882 462.523 596.054 408.107 592.099 344.866C588.145 281.626 533.569 233.638 470.359 237.821C407.469 241.982 359.789 296.234 363.723 359.154C367.658 422.074 421.725 469.961 484.643 466.251Z"/><path fill="#B9860C" transform="scale(1.61086 1.61068)" d="M193.048 216.748C203.113 216.314 215.507 216.641 225.747 216.637C226.547 303.575 226.783 390.518 226.456 477.459C220.262 477.632 214.067 477.744 207.872 477.793C203.021 477.839 182.888 478.345 179.9 475.462C176.827 472.498 177.745 455.038 177.799 449.99L177.776 268.406C159.914 276.128 150.567 279.185 131.889 284.025C131.998 270.672 132.006 257.319 131.914 243.966C156.31 237.699 171.822 229.229 193.048 216.748Z"/><path fill="#4A7753" transform="scale(1.61086 1.61068)" d="M923.535 308.132C925.692 307.778 931.185 307.847 933.447 307.995C947.559 308.817 960.739 315.315 969.986 326.01C985.303 343.545 984.91 362.775 983.482 384.319C970.786 385.415 952.58 385.273 939.86 385.251L886.765 385.234C891.158 431.542 923.207 442.5 963.667 430.028C966.955 428.751 971.193 426.765 974.5 425.325L974.455 446.245C948.287 459.176 910.369 461.374 886.755 441.733C855.43 415.679 855.386 359.496 880.568 329.302C891.937 315.671 906.13 309.677 923.535 308.132ZM887.299 366.917C900.735 366.756 914.172 366.692 927.609 366.724C938.975 366.717 950.341 366.623 961.705 366.443C957.514 341.225 950.646 326.499 921.865 328.333C901.011 332.593 890.583 346.612 887.299 366.917Z"/><path fill="#4A7753" transform="scale(1.61086 1.61068)" d="M717.019 311.659C724.202 311.349 733.525 311.609 740.872 311.623L740.8 367.682C740.771 380.87 739.722 395.335 742.189 408.228C749.311 445.452 785.227 437.695 807.038 419.76C805.547 385.447 806.797 346.486 806.612 311.683L830.753 311.653L830.803 350.687C830.687 386.82 830.552 417.203 832.749 453.235L810.262 453.385C809.635 448.667 808.984 443.952 808.309 439.24C779.753 462.128 731.584 466.838 719.451 421.853C715.257 406.304 717.078 383.635 717.147 367.131C717.212 348.64 717.169 330.149 717.019 311.659Z"/><path fill="#4A7753" transform="scale(1.61086 1.61068)" d="M1054.4 308.123C1068.2 306.801 1081.24 309.371 1093.75 315.152L1093.86 337.589C1080.57 331.485 1072.99 328.051 1058.37 328.057C1031.12 327.595 1019.33 351.063 1047.72 364.571C1067.84 373.786 1099.64 383.101 1100.5 410.355C1101.55 443.827 1074.85 454.788 1046.67 455.81C1031.59 455.489 1020.6 453.577 1007.46 446.184C1007.83 438.584 1007.84 430.356 1007.99 422.704C1022.59 430.893 1034.46 436.14 1051.91 434.951C1063.7 434.148 1078.24 428.158 1076.55 413.562C1074.6 400.923 1057.93 393.745 1047.4 389.641C1030.86 383.344 1011.09 373.116 1009.3 353.092C1006.6 322.914 1028.34 310.616 1054.4 308.123Z"/><path fill="#4A7753" transform="scale(1.61086 1.61068)" d="M1156.33 269.369C1158.17 269.099 1158.44 268.949 1160.14 269.52C1161.35 272.196 1159.67 305.19 1159.57 310.635L1192.32 310.581L1192.37 331.444L1159.26 331.447C1159.13 348.011 1159.26 364.561 1159.32 381.164C1159.5 393.658 1158.03 405.948 1159.8 418.377C1162.66 438.34 1178.25 434.951 1193 431.999L1193.07 450.836L1186.92 453.089C1160.31 460.451 1137.62 454.066 1135.5 422.708C1134.75 411.602 1135.24 401.191 1135.27 390.105L1135.32 331.449L1113.53 331.42C1113.48 324.532 1113.39 317.645 1113.26 310.759C1120.51 310.582 1128.03 310.635 1135.31 310.585C1135.27 298.395 1136.84 284.433 1137.4 272.02C1143.42 271.371 1150.27 270.231 1156.33 269.369Z"/><path fill="#B9860C" transform="scale(1.61086 1.61068)" d="M603.886 584.598C620.123 581.162 636.052 591.607 639.378 607.871C642.705 624.135 632.156 639.998 615.874 643.216C599.745 646.404 584.068 635.973 580.773 619.862C577.478 603.751 587.801 588.001 603.886 584.598Z"/></svg>
